<?xml version="1.0" encoding="utf-8"?>
<!-- Generator: Adobe Illustrator 24.1.2, SVG Export Plug-In . SVG Version: 6.00 Build 0)  -->
<svg version="1.1" id="Layer_1" xmlns="http://www.w3.org/2000/svg" xmlns:xlink="http://www.w3.org/1999/xlink" x="0px" y="0px"
	 viewBox="0 0 120 120" style="enable-background:new 0 0 120 120;" xml:space="preserve">
<style type="text/css">
	.st0{fill:none;stroke:#BDC5D1;stroke-width:3;stroke-linecap:round;stroke-linejoin:round;stroke-miterlimit:10;}
	.st1{opacity:0.5;fill:#BDC5D1;enable-background:new    ;}
	.st2{fill:#2F3B52;}
</style>
<path class="st0" d="M5.9,88.9c-5.3-3-5.3-8,0-11l44.4-25.7c5.3-3,13.8-3,19.1,0l44.5,25.7c5.3,3,5.3,8,0,11l-44.4,25.7
	c-5.3,3-13.8,3-19.1,0L5.9,88.9z"/>
<path class="st1" d="M4.7,65.6c-5.4-3.1-5.4-8.2,0-11.3l45.5-26.2c5.4-3.1,14.2-3.1,19.5,0l45.5,26.2c5.4,3.1,5.4,8.2,0,11.3
	L69.8,91.8c-5.4,3.1-14.2,3.1-19.5,0L4.7,65.6z"/>
<path class="st2" d="M4.7,43c-5.4-3.1-5.4-8.2,0-11.3L50.2,5.5c5.4-3.1,14.2-3.1,19.5,0l45.5,26.2c5.4,3.1,5.4,8.2,0,11.3L69.8,69.3
	c-5.4,3.1-14.2,3.1-19.5,0L4.7,43z"/>
</svg>
