<svg xmlns="http://www.w3.org/2000/svg" width="37" height="32.196" viewBox="0 0 37 32.196">
  <g>
    <path fill="rgb(185,151,69)" fill-rule="evenodd" d="M2.28961182 6.84123993l-.87902832 5.64434051h9.94189453l.29302978-5.64434051h-9.355896z"/>
    <path fill="rgb(185,151,69)" fill-rule="evenodd" d="M23.18371582 6.84123993h-9.36743164l-.29302979 5.64434051h9.95343018l-.29296875-5.64434051z"/>
    <path fill="rgb(185,151,69)" fill-rule="evenodd" d="M23.58935547 14.6535492H13.41064453l-.35766601 6.89035797h10.89404296l-.35766601-6.89035798z"/>
    <path fill="rgb(185,151,69)" fill-rule="evenodd" d="M35.92706299 14.6535492h-10.1671753l.35766602 6.89035797H37l-1.07293701-6.89035798z"/>
    <path fill="rgb(185,151,69)" fill-rule="evenodd" d="M13.92889404 4.67327118h9.14215088L22.82855225 0h-8.65716553l-.24249268 4.67327118z"/>
    <path fill="rgb(185,151,69)" fill-rule="evenodd" d="M11.2401123 14.6535492H1.07299805L0 21.54390716h10.88244629l.35766601-6.89035798z"/>
    <path fill="rgb(152,167,185)" fill-rule="evenodd" d="M21.75732422 23.92669678v-.21482086h2.1677246v.21482086c0 2.24108124-1.82305907 4.06409454-4.06414794 4.06409454h-.2769165v2.03755188h3.04193115v2.16768646h-8.25183106V30.0283432h3.04193116v-2.03755188h-.2769165c-2.24108888 0-4.06408692-1.8230133-4.06408692-4.06409454v-.21482086h2.16766357v.21482086c0 1.04559326.85058594 1.89640808 1.89642334 1.89640808h2.72180176c1.04589844 0 1.89642334-.85081482 1.89642334-1.89640808z"/>
    <path fill="rgb(185,151,69)" fill-rule="evenodd" d="M34.71032715 6.84123993h-9.35583496l.29302978 5.64434051h9.94189453l-.87908935-5.64434051z"/>
    <path fill="rgb(185,151,69)" fill-rule="evenodd" d="M24.99938965 0l.24249267 4.67327118h9.13085938L33.64501953 0h-8.64562988z"/>
    <path fill="rgb(185,151,69)" fill-rule="evenodd" d="M11.75811768 4.67327118L12.00061035 0H3.35498047L2.6272583 4.67327118h9.13085938z"/>
  </g>
</svg>
