<?xml version="1.0" encoding="utf-8"?>
<!-- Generator: Adobe Illustrator 24.1.2, SVG Export Plug-In . SVG Version: 6.00 Build 0)  -->
<svg version="1.1" id="Layer_1" xmlns="http://www.w3.org/2000/svg" xmlns:xlink="http://www.w3.org/1999/xlink" x="0px" y="0px"
	 viewBox="0 0 1280 1024" style="enable-background:new 0 0 1280 1024;" xml:space="preserve">
<style type="text/css">
	.st0{fill:#869AAC;}
</style>
<path class="st0" d="M509.2,345.7c15.3,0,24.2,0,26.7,0c0,2.7,0,14.3,0,34.8c0,20.5,0,32,0,34.4l81-29.4c0,7.9,0,15,0,21.3l-81,29.4
	c0,0.9,0,2.8,0,5.7c0,2.9,0,4.8,0,5.7l43.9-15.5l37.1-13.8c0,1.4,0,4.8,0,10.3s0,8.8,0,10c0,0.9-0.2,1.4-0.7,1.4l-78,28
	c-0.9,0.5-1.7,0.9-2.4,1.4c0,13.7,0,32.7,0,56.9c0,24.2,0,43.2,0,56.9v0.7c20.5-2.5,38.6-10.2,54.4-23.3
	c17.3-14.2,28.9-31.8,34.8-53c2.5-9.7,3.7-19.3,3.7-29h27c0,21.8-5.3,42.4-15.9,61.8c-7.4,14.9-17.6,27.7-30.4,38.5
	c-11.9,10.6-25.3,18.7-40.2,24.3c-19.4,7.4-39.4,10-60.1,7.8c0-14.6,0-36.6,0-65.8s0-51.3,0-66.2l-4.4,1.7L458.5,497
	c0-6.8,0-13.8,0-21.3l50.6-18.2c0-1.4,0-5.3,0-11.8c-2.5,1.1-5.8,2.5-10,4c-4.2,1.6-6.8,2.5-7.9,2.7l-26.7,9.8
	c-2.9,0.9-5,1.5-6.1,1.7c0-10.8,0-17.9,0-21.3l50.6-17.9c0-9.9,0-23.1,0-39.5C509.2,368.8,509.2,355.6,509.2,345.7z"/>
</svg>
