<svg id="Flag" xmlns="http://www.w3.org/2000/svg" viewBox="0 0 1990 1050"><defs><style>.cls-1{fill:#e30a17;}.cls-2{fill:#fff;}</style></defs><rect class="cls-1" width="1990" height="1050"/><path class="cls-2" d="M687.13,736.48c-104.8,0-189.77-93.36-189.77-208.52s85-208.52,189.77-208.52c63,0,118.8,33.72,153.31,85.63C800,322.41,720.63,266.19,629.26,266.19c-132.31,0-239.57,117.87-239.57,263.24S497,792.67,629.26,792.67c95.35,0,177.68-61.2,216.24-149.81C811.54,699.27,753.3,736.48,687.13,736.48Z"/><polygon class="cls-2" points="898.48 395.53 952.22 477.43 1039.71 446.59 985.43 528.05 1039.16 609.94 951.88 578.4 897.6 659.85 897.94 558.89 810.65 527.34 898.14 496.5 898.48 395.53"/></svg>