<?xml version="1.0" encoding="utf-8"?>
<!-- Generator: Adobe Illustrator 24.1.2, SVG Export Plug-In . SVG Version: 6.00 Build 0)  -->
<svg version="1.1" id="Layer_1" xmlns="http://www.w3.org/2000/svg" xmlns:xlink="http://www.w3.org/1999/xlink" x="0px" y="0px"
	 viewBox="0 0 999.1 577.5" style="enable-background:new 0 0 999.1 577.5;" xml:space="preserve">
<style type="text/css">
	.st0{fill:#FFFFFF;stroke:#E7EAF3;stroke-miterlimit:10;}
	.st1{fill:#F7F7F7;}
	.st2{fill:#FFFFFF;}
	.st3{fill:#E7EAF3;}
	.st4{fill:url(#SVGID_3_);}
	.st5{clip-path:url(#SVGID_6_);}
	.st6{fill:none;stroke:#E7EAF3;stroke-miterlimit:10;}
	.st7{clip-path:url(#SVGID_8_);}
	.st8{fill-rule:evenodd;clip-rule:evenodd;fill:#F7F7F7;}
	.st9{clip-path:url(#SVGID_10_);}
</style>
<path class="st0" d="M881.3,577H117.5c-14.4,0-26.2-11.8-26.2-26.2V26.7c0-14.4,11.8-26.2,26.2-26.2h763.9
	c14.4,0,26.2,11.8,26.2,26.2v524.2C907.5,565.2,895.7,577,881.3,577z"/>
<circle class="st1" cx="498" cy="23.8" r="3"/>
<path class="st2" d="M996.3,561.2H2.9c-1.5,0-2.8-1.3-2.8-2.8l0,0c0-1.5,1.3-2.8,2.8-2.8h993.4c1.5,0,2.8,1.3,2.8,2.8l0,0
	C999.1,559.9,997.9,561.2,996.3,561.2z"/>
<path class="st3" d="M499.6,563L0,561.2c0,0,24.1,11.3,117.8,15.8H498h3.1h380.2c93.7-4.5,117.8-15.8,117.8-15.8L499.6,563z"/>
<linearGradient id="SVGID_3_" gradientUnits="userSpaceOnUse" x1="403.9" y1="20.8" x2="595" y2="20.8" gradientTransform="matrix(1 0 0 -1 0 580)">
	<stop  offset="5.908129e-07" style="stop-color:#F0F1F2"/>
	<stop  offset="5.235744e-02" style="stop-color:#F6F7F8"/>
	<stop  offset="0.1708" style="stop-color:#FDFDFD"/>
	<stop  offset="0.5" style="stop-color:#FFFFFF"/>
	<stop  offset="0.8292" style="stop-color:#FDFDFD"/>
	<stop  offset="0.9476" style="stop-color:#F6F7F8"/>
	<stop  offset="1" style="stop-color:#F0F1F2"/>
</linearGradient>
<path class="st4" d="M591.4,562.7h-184c-1.9,0-3.5-1.6-3.5-3.5v-3.5H595v3.5C595,561.1,593.4,562.7,591.4,562.7z"/>
<g>
	<g>
		<defs>
			<rect id="SVGID_5_" x="121" y="37.5" width="753" height="470"/>
		</defs>
		<clipPath id="SVGID_6_">
			<use xlink:href="#SVGID_5_"  style="overflow:visible;"/>
		</clipPath>
		<g class="st5">
			
				<image style="overflow:visible;enable-background:new    ;" width="794" height="494" id="SVGlaptopAndIphoneImg1" xlink:href="img2.jpg"  transform="matrix(0.9487 0 0 0.9487 121 38.5)">
			</image>
		</g>
	</g>
	<g>
		<rect id="SVGID_2_" x="121.5" y="38" class="st6" width="753" height="470"/>
	</g>
</g>
<g>
	<g>
		<defs>
			<rect id="SVGID_7_" x="121" y="37.5" width="753" height="470"/>
		</defs>
		<clipPath id="SVGID_8_">
			<use xlink:href="#SVGID_7_"  style="overflow:visible;"/>
		</clipPath>
		<g class="st7">
			
				<image style="overflow:visible;enable-background:new    ;" width="794" height="494" id="SVGlaptopAndIphoneImg1_1_" xlink:href="img2.jpg"  transform="matrix(0.9487 0 0 0.9487 121 38.5)">
			</image>
		</g>
	</g>
	<g>
		<rect id="SVGID_1_" x="121.5" y="38" class="st6" width="753" height="470"/>
	</g>
</g>
<path class="st0" d="M944,577H823.1c-29.7,0-54-24.3-54-54V150.9c0-29.7,24.3-54,54-54H944c29.7,0,54,24.3,54,54V523
	C998,552.7,973.7,577,944,577z"/>
<circle class="st1" cx="884.3" cy="543.4" r="18.4"/>
<path class="st8" d="M899.1,133.7h-30.3c-1.6,0-2.9-1.3-2.9-2.9l0,0c0-1.6,1.3-2.9,2.9-2.9h30.3c1.6,0,2.9,1.3,2.9,2.9l0,0
	C902,132.4,900.7,133.7,899.1,133.7z"/>
<g>
	<g>
		<defs>
			<rect id="SVGID_9_" x="783" y="154.5" width="202" height="361"/>
		</defs>
		<clipPath id="SVGID_10_">
			<use xlink:href="#SVGID_9_"  style="overflow:visible;"/>
		</clipPath>
		<g class="st9">
			
				<image style="overflow:visible;enable-background:new    ;" width="305" height="537" id="SVGlaptopAndIphoneImg2" xlink:href="img8.jpg"  transform="matrix(0.6711 0 0 0.6711 782 155.5)">
			</image>
		</g>
	</g>
	<g>
		<rect id="SVGID_4_" x="783.5" y="155" class="st6" width="202" height="361"/>
	</g>
</g>
</svg>
